<?xml version="1.0" encoding="utf-8" standalone="no"?>
<!DOCTYPE svg PUBLIC "-//W3C//DTD SVG 1.1//EN"
  "http://www.w3.org/Graphics/SVG/1.1/DTD/svg11.dtd">
<svg xmlns:xlink="http://www.w3.org/1999/xlink" width="460.8pt" height="345.6pt" viewBox="0 0 460.8 345.6" xmlns="http://www.w3.org/2000/svg" version="1.1">
 <metadata>
  <rdf:RDF xmlns:dc="http://purl.org/dc/elements/1.1/" xmlns:cc="http://creativecommons.org/ns#" xmlns:rdf="http://www.w3.org/1999/02/22-rdf-syntax-ns#">
   <cc:Work>
    <dc:type rdf:resource="http://purl.org/dc/dcmitype/StillImage"/>
    <dc:date>2025-05-27T13:50:27.370433</dc:date>
    <dc:format>image/svg+xml</dc:format>
    <dc:creator>
     <cc:Agent>
      <dc:title>Matplotlib v3.8.1, https://matplotlib.org/</dc:title>
     </cc:Agent>
    </dc:creator>
   </cc:Work>
  </rdf:RDF>
 </metadata>
 <defs>
  <style type="text/css">*{stroke-linejoin: round; stroke-linecap: butt}</style>
 </defs>
 <g id="figure_1">
  <g id="patch_1">
   <path d="M 0 345.6 
L 460.8 345.6 
L 460.8 0 
L 0 0 
z
" style="fill: #ffffff"/>
  </g>
  <g id="axes_1">
   <g id="patch_2">
    <path d="M 56.08 317.72 
L 450 317.72 
L 450 10.8 
L 56.08 10.8 
z
" style="fill: #ffffff"/>
   </g>
   <g id="matplotlib.axis_1">
    <g id="xtick_1">
     <g id="line2d_1">
      <defs>
       <path id="mae0829af9b" d="M 0 0 
L 0 3.5 
" style="stroke: #000000; stroke-width: 0.8"/>
      </defs>
      <g>
       <use xlink:href="#mae0829af9b" x="95.472" y="317.72" style="stroke: #000000; stroke-width: 0.8"/>
      </g>
     </g>
     <g id="text_1">
      <!-- 0 -->
      <g transform="translate(92.29075 332.318437) scale(0.1 -0.1)">
       <defs>
        <path id="DejaVuSans-30" d="M 2034 4250 
Q 1547 4250 1301 3770 
Q 1056 3291 1056 2328 
Q 1056 1369 1301 889 
Q 1547 409 2034 409 
Q 2525 409 2770 889 
Q 3016 1369 3016 2328 
Q 3016 3291 2770 3770 
Q 2525 4250 2034 4250 
z
M 2034 4750 
Q 2819 4750 3233 4129 
Q 3647 3509 3647 2328 
Q 3647 1150 3233 529 
Q 2819 -91 2034 -91 
Q 1250 -91 836 529 
Q 422 1150 422 2328 
Q 422 3509 836 4129 
Q 1250 4750 2034 4750 
z
" transform="scale(0.015625)"/>
       </defs>
       <use xlink:href="#DejaVuSans-30"/>
      </g>
     </g>
    </g>
    <g id="xtick_2">
     <g id="line2d_2">
      <g>
       <use xlink:href="#mae0829af9b" x="174.256" y="317.72" style="stroke: #000000; stroke-width: 0.8"/>
      </g>
     </g>
     <g id="text_2">
      <!-- 1 -->
      <g transform="translate(171.07475 332.318437) scale(0.1 -0.1)">
       <defs>
        <path id="DejaVuSans-31" d="M 794 531 
L 1825 531 
L 1825 4091 
L 703 3866 
L 703 4441 
L 1819 4666 
L 2450 4666 
L 2450 531 
L 3481 531 
L 3481 0 
L 794 0 
L 794 531 
z
" transform="scale(0.015625)"/>
       </defs>
       <use xlink:href="#DejaVuSans-31"/>
      </g>
     </g>
    </g>
    <g id="xtick_3">
     <g id="line2d_3">
      <g>
       <use xlink:href="#mae0829af9b" x="253.04" y="317.72" style="stroke: #000000; stroke-width: 0.8"/>
      </g>
     </g>
     <g id="text_3">
      <!-- 2 -->
      <g transform="translate(249.85875 332.318437) scale(0.1 -0.1)">
       <defs>
        <path id="DejaVuSans-32" d="M 1228 531 
L 3431 531 
L 3431 0 
L 469 0 
L 469 531 
Q 828 903 1448 1529 
Q 2069 2156 2228 2338 
Q 2531 2678 2651 2914 
Q 2772 3150 2772 3378 
Q 2772 3750 2511 3984 
Q 2250 4219 1831 4219 
Q 1534 4219 1204 4116 
Q 875 4013 500 3803 
L 500 4441 
Q 881 4594 1212 4672 
Q 1544 4750 1819 4750 
Q 2544 4750 2975 4387 
Q 3406 4025 3406 3419 
Q 3406 3131 3298 2873 
Q 3191 2616 2906 2266 
Q 2828 2175 2409 1742 
Q 1991 1309 1228 531 
z
" transform="scale(0.015625)"/>
       </defs>
       <use xlink:href="#DejaVuSans-32"/>
      </g>
     </g>
    </g>
    <g id="xtick_4">
     <g id="line2d_4">
      <g>
       <use xlink:href="#mae0829af9b" x="331.824" y="317.72" style="stroke: #000000; stroke-width: 0.8"/>
      </g>
     </g>
     <g id="text_4">
      <!-- 3 -->
      <g transform="translate(328.64275 332.318437) scale(0.1 -0.1)">
       <defs>
        <path id="DejaVuSans-33" d="M 2597 2516 
Q 3050 2419 3304 2112 
Q 3559 1806 3559 1356 
Q 3559 666 3084 287 
Q 2609 -91 1734 -91 
Q 1441 -91 1130 -33 
Q 819 25 488 141 
L 488 750 
Q 750 597 1062 519 
Q 1375 441 1716 441 
Q 2309 441 2620 675 
Q 2931 909 2931 1356 
Q 2931 1769 2642 2001 
Q 2353 2234 1838 2234 
L 1294 2234 
L 1294 2753 
L 1863 2753 
Q 2328 2753 2575 2939 
Q 2822 3125 2822 3475 
Q 2822 3834 2567 4026 
Q 2313 4219 1838 4219 
Q 1578 4219 1281 4162 
Q 984 4106 628 3988 
L 628 4550 
Q 988 4650 1302 4700 
Q 1616 4750 1894 4750 
Q 2613 4750 3031 4423 
Q 3450 4097 3450 3541 
Q 3450 3153 3228 2886 
Q 3006 2619 2597 2516 
z
" transform="scale(0.015625)"/>
       </defs>
       <use xlink:href="#DejaVuSans-33"/>
      </g>
     </g>
    </g>
    <g id="xtick_5">
     <g id="line2d_5">
      <g>
       <use xlink:href="#mae0829af9b" x="410.608" y="317.72" style="stroke: #000000; stroke-width: 0.8"/>
      </g>
     </g>
     <g id="text_5">
      <!-- 4 -->
      <g transform="translate(407.42675 332.318437) scale(0.1 -0.1)">
       <defs>
        <path id="DejaVuSans-34" d="M 2419 4116 
L 825 1625 
L 2419 1625 
L 2419 4116 
z
M 2253 4666 
L 3047 4666 
L 3047 1625 
L 3713 1625 
L 3713 1100 
L 3047 1100 
L 3047 0 
L 2419 0 
L 2419 1100 
L 313 1100 
L 313 1709 
L 2253 4666 
z
" transform="scale(0.015625)"/>
       </defs>
       <use xlink:href="#DejaVuSans-34"/>
      </g>
     </g>
    </g>
    <g id="text_6">
     <!-- Retention Time -->
     <g transform="translate(215.10875 345.996562) scale(0.1 -0.1)">
      <defs>
       <path id="DejaVuSans-52" d="M 2841 2188 
Q 3044 2119 3236 1894 
Q 3428 1669 3622 1275 
L 4263 0 
L 3584 0 
L 2988 1197 
Q 2756 1666 2539 1819 
Q 2322 1972 1947 1972 
L 1259 1972 
L 1259 0 
L 628 0 
L 628 4666 
L 2053 4666 
Q 2853 4666 3247 4331 
Q 3641 3997 3641 3322 
Q 3641 2881 3436 2590 
Q 3231 2300 2841 2188 
z
M 1259 4147 
L 1259 2491 
L 2053 2491 
Q 2509 2491 2742 2702 
Q 2975 2913 2975 3322 
Q 2975 3731 2742 3939 
Q 2509 4147 2053 4147 
L 1259 4147 
z
" transform="scale(0.015625)"/>
       <path id="DejaVuSans-65" d="M 3597 1894 
L 3597 1613 
L 953 1613 
Q 991 1019 1311 708 
Q 1631 397 2203 397 
Q 2534 397 2845 478 
Q 3156 559 3463 722 
L 3463 178 
Q 3153 47 2828 -22 
Q 2503 -91 2169 -91 
Q 1331 -91 842 396 
Q 353 884 353 1716 
Q 353 2575 817 3079 
Q 1281 3584 2069 3584 
Q 2775 3584 3186 3129 
Q 3597 2675 3597 1894 
z
M 3022 2063 
Q 3016 2534 2758 2815 
Q 2500 3097 2075 3097 
Q 1594 3097 1305 2825 
Q 1016 2553 972 2059 
L 3022 2063 
z
" transform="scale(0.015625)"/>
       <path id="DejaVuSans-74" d="M 1172 4494 
L 1172 3500 
L 2356 3500 
L 2356 3053 
L 1172 3053 
L 1172 1153 
Q 1172 725 1289 603 
Q 1406 481 1766 481 
L 2356 481 
L 2356 0 
L 1766 0 
Q 1100 0 847 248 
Q 594 497 594 1153 
L 594 3053 
L 172 3053 
L 172 3500 
L 594 3500 
L 594 4494 
L 1172 4494 
z
" transform="scale(0.015625)"/>
       <path id="DejaVuSans-6e" d="M 3513 2113 
L 3513 0 
L 2938 0 
L 2938 2094 
Q 2938 2591 2744 2837 
Q 2550 3084 2163 3084 
Q 1697 3084 1428 2787 
Q 1159 2491 1159 1978 
L 1159 0 
L 581 0 
L 581 3500 
L 1159 3500 
L 1159 2956 
Q 1366 3272 1645 3428 
Q 1925 3584 2291 3584 
Q 2894 3584 3203 3211 
Q 3513 2838 3513 2113 
z
" transform="scale(0.015625)"/>
       <path id="DejaVuSans-69" d="M 603 3500 
L 1178 3500 
L 1178 0 
L 603 0 
L 603 3500 
z
M 603 4863 
L 1178 4863 
L 1178 4134 
L 603 4134 
L 603 4863 
z
" transform="scale(0.015625)"/>
       <path id="DejaVuSans-6f" d="M 1959 3097 
Q 1497 3097 1228 2736 
Q 959 2375 959 1747 
Q 959 1119 1226 758 
Q 1494 397 1959 397 
Q 2419 397 2687 759 
Q 2956 1122 2956 1747 
Q 2956 2369 2687 2733 
Q 2419 3097 1959 3097 
z
M 1959 3584 
Q 2709 3584 3137 3096 
Q 3566 2609 3566 1747 
Q 3566 888 3137 398 
Q 2709 -91 1959 -91 
Q 1206 -91 779 398 
Q 353 888 353 1747 
Q 353 2609 779 3096 
Q 1206 3584 1959 3584 
z
" transform="scale(0.015625)"/>
       <path id="DejaVuSans-20" transform="scale(0.015625)"/>
       <path id="DejaVuSans-54" d="M -19 4666 
L 3928 4666 
L 3928 4134 
L 2272 4134 
L 2272 0 
L 1638 0 
L 1638 4134 
L -19 4134 
L -19 4666 
z
" transform="scale(0.015625)"/>
       <path id="DejaVuSans-6d" d="M 3328 2828 
Q 3544 3216 3844 3400 
Q 4144 3584 4550 3584 
Q 5097 3584 5394 3201 
Q 5691 2819 5691 2113 
L 5691 0 
L 5113 0 
L 5113 2094 
Q 5113 2597 4934 2840 
Q 4756 3084 4391 3084 
Q 3944 3084 3684 2787 
Q 3425 2491 3425 1978 
L 3425 0 
L 2847 0 
L 2847 2094 
Q 2847 2600 2669 2842 
Q 2491 3084 2119 3084 
Q 1678 3084 1418 2786 
Q 1159 2488 1159 1978 
L 1159 0 
L 581 0 
L 581 3500 
L 1159 3500 
L 1159 2956 
Q 1356 3278 1631 3431 
Q 1906 3584 2284 3584 
Q 2666 3584 2933 3390 
Q 3200 3197 3328 2828 
z
" transform="scale(0.015625)"/>
      </defs>
      <use xlink:href="#DejaVuSans-52"/>
      <use xlink:href="#DejaVuSans-65" x="64.982422"/>
      <use xlink:href="#DejaVuSans-74" x="126.505859"/>
      <use xlink:href="#DejaVuSans-65" x="165.714844"/>
      <use xlink:href="#DejaVuSans-6e" x="227.238281"/>
      <use xlink:href="#DejaVuSans-74" x="290.617188"/>
      <use xlink:href="#DejaVuSans-69" x="329.826172"/>
      <use xlink:href="#DejaVuSans-6f" x="357.609375"/>
      <use xlink:href="#DejaVuSans-6e" x="418.791016"/>
      <use xlink:href="#DejaVuSans-20" x="482.169922"/>
      <use xlink:href="#DejaVuSans-54" x="513.957031"/>
      <use xlink:href="#DejaVuSans-69" x="571.916016"/>
      <use xlink:href="#DejaVuSans-6d" x="599.699219"/>
      <use xlink:href="#DejaVuSans-65" x="697.111328"/>
     </g>
    </g>
   </g>
  </g>
  <g id="axes_2">
   <g id="PolyCollection_1">
    <defs>
     <path id="m7d1f5f418a" d="M 56.08 -68.464463 
L 56.08 -68.464463 
L 56.474314 -68.464463 
L 56.868629 -68.464463 
L 57.262943 -68.464463 
L 57.657257 -68.464463 
L 58.051572 -68.464463 
L 58.445886 -68.464463 
L 58.8402 -68.464463 
L 59.234515 -68.464463 
L 59.628829 -68.464463 
L 60.023143 -68.464463 
L 60.417457 -68.464463 
L 60.811772 -68.464463 
L 61.206086 -68.464463 
L 61.6004 -68.464463 
L 61.994715 -68.464463 
L 62.389029 -68.464463 
L 62.783343 -68.464463 
L 63.177658 -68.464463 
L 63.571972 -68.464463 
L 63.966286 -68.464463 
L 64.360601 -68.464463 
L 64.754915 -68.464463 
L 65.149229 -68.464463 
L 65.543544 -68.464463 
L 65.937858 -68.464463 
L 66.332172 -68.464463 
L 66.726486 -68.464463 
L 67.120801 -68.464463 
L 67.515115 -68.464463 
L 67.909429 -68.464463 
L 68.303744 -68.464463 
L 68.698058 -68.464463 
L 69.092372 -68.464463 
L 69.486687 -68.464463 
L 69.881001 -68.464463 
L 70.275315 -68.464463 
L 70.66963 -68.464463 
L 71.063944 -68.464463 
L 71.458258 -68.464463 
L 71.852573 -68.464463 
L 72.246887 -68.464463 
L 72.641201 -68.464463 
L 73.035516 -68.464463 
L 73.42983 -68.464463 
L 73.824144 -68.464463 
L 74.218458 -68.464463 
L 74.612773 -68.464463 
L 75.007087 -68.464463 
L 75.401401 -68.464463 
L 75.795716 -68.464463 
L 76.19003 -68.464463 
L 76.584344 -68.464463 
L 76.978659 -68.464463 
L 77.372973 -68.464463 
L 77.767287 -68.464463 
L 78.161602 -68.464463 
L 78.555916 -68.464463 
L 78.95023 -68.464463 
L 79.344545 -68.464463 
L 79.738859 -68.464463 
L 80.133173 -68.464463 
L 80.527487 -68.464463 
L 80.921802 -68.464463 
L 81.316116 -68.464463 
L 81.71043 -68.464463 
L 82.104745 -68.464463 
L 82.499059 -68.464463 
L 82.893373 -68.464463 
L 83.287688 -68.464463 
L 83.682002 -68.464463 
L 84.076316 -68.464463 
L 84.470631 -68.464463 
L 84.864945 -68.464463 
L 85.259259 -68.464463 
L 85.653574 -68.464463 
L 86.047888 -68.464463 
L 86.442202 -68.464463 
L 86.836517 -68.464463 
L 87.230831 -68.464463 
L 87.625145 -68.464463 
L 88.019459 -68.464463 
L 88.413774 -68.464463 
L 88.808088 -68.464463 
L 89.202402 -68.464463 
L 89.596717 -68.464463 
L 89.991031 -68.464463 
L 90.385345 -68.464463 
L 90.77966 -68.464463 
L 91.173974 -68.464463 
L 91.568288 -68.464463 
L 91.962603 -68.464463 
L 92.356917 -68.464463 
L 92.751231 -68.464463 
L 93.145546 -68.464463 
L 93.53986 -68.464463 
L 93.934174 -68.464463 
L 94.328488 -68.464463 
L 94.722803 -68.464463 
L 95.117117 -68.464463 
L 95.511431 -68.464463 
L 95.905746 -68.464463 
L 96.30006 -68.464463 
L 96.694374 -68.464463 
L 97.088689 -68.464463 
L 97.483003 -68.464463 
L 97.877317 -68.464463 
L 98.271632 -68.464463 
L 98.665946 -68.464463 
L 99.06026 -68.464463 
L 99.454575 -68.464463 
L 99.848889 -68.464463 
L 100.243203 -68.464463 
L 100.637518 -68.464463 
L 101.031832 -68.464463 
L 101.426146 -68.464463 
L 101.82046 -68.464463 
L 102.214775 -68.464463 
L 102.609089 -68.464463 
L 103.003403 -68.464463 
L 103.397718 -68.464463 
L 103.792032 -68.464463 
L 104.186346 -68.464463 
L 104.580661 -68.464463 
L 104.974975 -68.464463 
L 105.369289 -68.464463 
L 105.763604 -68.464463 
L 106.157918 -68.464463 
L 106.552232 -68.464463 
L 106.946547 -68.464463 
L 107.340861 -68.464463 
L 107.735175 -68.464463 
L 108.129489 -68.464463 
L 108.523804 -68.464463 
L 108.918118 -68.464463 
L 109.312432 -68.464463 
L 109.706747 -68.464463 
L 110.101061 -68.464463 
L 110.495375 -68.464463 
L 110.88969 -68.464463 
L 111.284004 -68.464463 
L 111.678318 -68.464463 
L 112.072633 -68.464463 
L 112.466947 -68.464463 
L 112.861261 -68.464463 
L 113.255576 -68.464463 
L 113.64989 -68.464463 
L 114.044204 -68.464463 
L 114.438519 -68.464463 
L 114.832833 -68.464463 
L 115.227147 -68.464463 
L 115.621461 -68.464463 
L 116.015776 -68.464463 
L 116.41009 -68.464463 
L 116.804404 -68.464463 
L 117.198719 -68.464463 
L 117.593033 -68.464463 
L 117.987347 -68.464463 
L 118.381662 -68.464463 
L 118.775976 -68.464463 
L 119.17029 -68.464463 
L 119.564605 -68.464463 
L 119.958919 -68.464463 
L 120.353233 -68.464463 
L 120.747548 -68.464463 
L 121.141862 -68.464463 
L 121.536176 -68.464463 
L 121.93049 -68.464463 
L 122.324805 -68.464463 
L 122.719119 -68.464463 
L 123.113433 -68.464463 
L 123.507748 -68.464463 
L 123.902062 -68.464463 
L 124.296376 -68.464463 
L 124.690691 -68.464463 
L 125.085005 -68.464463 
L 125.479319 -68.464463 
L 125.873634 -68.464463 
L 126.267948 -68.464463 
L 126.662262 -68.464463 
L 127.056577 -68.464463 
L 127.450891 -68.464463 
L 127.845205 -68.464463 
L 128.23952 -68.464463 
L 128.633834 -68.464463 
L 129.028148 -68.464463 
L 129.422462 -68.464463 
L 129.816777 -68.464463 
L 130.211091 -68.464463 
L 130.605405 -68.464463 
L 130.99972 -68.464463 
L 131.394034 -68.464463 
L 131.788348 -68.464463 
L 132.182663 -68.464463 
L 132.576977 -68.464463 
L 132.971291 -68.464463 
L 133.365606 -68.464463 
L 133.75992 -68.464463 
L 134.154234 -68.464463 
L 134.548549 -68.464463 
L 134.942863 -68.464463 
L 135.337177 -68.464463 
L 135.731491 -68.464463 
L 136.125806 -68.464463 
L 136.52012 -68.464463 
L 136.914434 -68.464463 
L 137.308749 -68.464463 
L 137.703063 -68.464463 
L 138.097377 -68.464463 
L 138.491692 -68.464463 
L 138.886006 -68.464463 
L 139.28032 -68.464463 
L 139.674635 -68.464463 
L 140.068949 -68.464463 
L 140.463263 -68.464463 
L 140.857578 -68.464463 
L 141.251892 -68.464463 
L 141.646206 -68.464463 
L 142.040521 -68.464463 
L 142.434835 -68.464463 
L 142.829149 -68.464463 
L 143.223463 -68.464463 
L 143.617778 -68.464463 
L 144.012092 -68.464463 
L 144.406406 -68.464463 
L 144.800721 -68.464463 
L 145.195035 -68.464463 
L 145.589349 -68.464463 
L 145.983664 -68.464463 
L 146.377978 -68.464463 
L 146.772292 -68.464463 
L 147.166607 -68.464463 
L 147.560921 -68.464463 
L 147.955235 -68.464463 
L 148.34955 -68.464463 
L 148.743864 -68.464463 
L 149.138178 -68.464463 
L 149.532492 -68.464463 
L 149.926807 -68.464463 
L 150.321121 -68.464463 
L 150.715435 -68.464463 
L 151.10975 -68.464463 
L 151.504064 -68.464463 
L 151.898378 -68.464463 
L 152.292693 -68.464463 
L 152.687007 -68.464463 
L 153.081321 -68.464463 
L 153.475636 -68.464463 
L 153.86995 -68.464463 
L 154.264264 -68.464463 
L 154.658579 -68.464463 
L 155.052893 -68.464463 
L 155.447207 -68.464463 
L 155.841522 -68.464463 
L 156.235836 -68.464463 
L 156.63015 -68.464463 
L 157.024464 -68.464463 
L 157.418779 -68.464463 
L 157.813093 -68.464463 
L 158.207407 -68.464463 
L 158.601722 -68.464463 
L 158.996036 -68.464463 
L 159.39035 -68.464463 
L 159.784665 -68.464463 
L 160.178979 -68.464463 
L 160.573293 -68.464463 
L 160.967608 -68.464463 
L 161.361922 -68.464463 
L 161.756236 -68.464463 
L 162.150551 -68.464463 
L 162.544865 -68.464463 
L 162.939179 -68.464463 
L 163.333493 -68.464463 
L 163.727808 -68.464463 
L 164.122122 -68.464463 
L 164.516436 -68.464463 
L 164.910751 -68.464463 
L 165.305065 -68.464463 
L 165.699379 -68.464463 
L 166.093694 -68.464463 
L 166.488008 -68.464463 
L 166.882322 -68.464463 
L 167.276637 -68.464463 
L 167.670951 -68.464463 
L 168.065265 -68.464463 
L 168.45958 -68.464463 
L 168.853894 -68.464463 
L 169.248208 -68.464463 
L 169.642523 -68.464463 
L 170.036837 -68.464463 
L 170.431151 -68.464463 
L 170.825465 -68.464463 
L 171.21978 -68.464463 
L 171.614094 -68.464463 
L 172.008408 -68.464463 
L 172.402723 -68.464463 
L 172.797037 -68.464463 
L 173.191351 -68.464463 
L 173.585666 -68.464463 
L 173.97998 -68.464463 
L 174.374294 -68.464463 
L 174.768609 -68.464463 
L 175.162923 -68.464463 
L 175.557237 -68.464463 
L 175.951552 -68.464463 
L 176.345866 -68.464463 
L 176.74018 -68.464463 
L 177.134494 -68.464463 
L 177.528809 -68.464463 
L 177.923123 -68.464463 
L 178.317437 -68.464463 
L 178.711752 -68.464463 
L 179.106066 -68.464463 
L 179.50038 -68.464463 
L 179.894695 -68.464463 
L 180.289009 -68.464463 
L 180.683323 -68.464463 
L 181.077638 -68.464463 
L 181.471952 -68.464463 
L 181.866266 -68.464463 
L 182.260581 -68.464463 
L 182.654895 -68.464463 
L 183.049209 -68.464463 
L 183.443524 -68.464463 
L 183.837838 -68.464463 
L 184.232152 -68.464463 
L 184.626466 -68.464463 
L 185.020781 -68.464463 
L 185.415095 -68.464463 
L 185.809409 -68.464463 
L 186.203724 -68.464463 
L 186.598038 -68.464463 
L 186.992352 -68.464463 
L 187.386667 -68.464463 
L 187.780981 -68.464463 
L 188.175295 -68.464463 
L 188.56961 -68.464463 
L 188.963924 -68.464463 
L 189.358238 -68.464463 
L 189.752553 -68.464463 
L 190.146867 -68.464463 
L 190.541181 -68.464463 
L 190.935495 -68.464463 
L 191.32981 -68.464463 
L 191.724124 -68.464463 
L 192.118438 -68.464463 
L 192.512753 -68.464463 
L 192.907067 -68.464463 
L 193.301381 -68.464463 
L 193.695696 -68.464463 
L 194.09001 -68.464463 
L 194.484324 -68.464463 
L 194.878639 -68.464463 
L 195.272953 -68.464463 
L 195.667267 -68.464463 
L 196.061582 -68.464463 
L 196.455896 -68.464463 
L 196.85021 -68.464463 
L 197.244525 -68.464463 
L 197.638839 -68.464463 
L 198.033153 -68.464463 
L 198.427467 -68.464463 
L 198.821782 -68.464463 
L 199.216096 -68.464463 
L 199.61041 -68.464463 
L 200.004725 -68.464463 
L 200.399039 -68.464463 
L 200.793353 -68.464463 
L 201.187668 -68.464463 
L 201.581982 -68.464463 
L 201.976296 -68.464463 
L 202.370611 -68.464463 
L 202.764925 -68.464463 
L 203.159239 -68.464463 
L 203.553554 -68.464463 
L 203.947868 -68.464463 
L 204.342182 -68.464463 
L 204.736496 -68.464463 
L 205.130811 -68.464463 
L 205.525125 -68.464463 
L 205.919439 -68.464463 
L 206.313754 -68.464463 
L 206.708068 -68.464463 
L 207.102382 -68.464463 
L 207.496697 -68.464463 
L 207.891011 -68.464463 
L 208.285325 -68.464463 
L 208.67964 -68.464463 
L 209.073954 -68.464463 
L 209.468268 -68.464463 
L 209.862583 -68.464463 
L 210.256897 -68.464463 
L 210.651211 -68.464463 
L 211.045526 -68.464463 
L 211.43984 -68.464463 
L 211.834154 -68.464463 
L 212.228468 -68.464463 
L 212.622783 -68.464463 
L 213.017097 -68.464463 
L 213.411411 -68.464463 
L 213.805726 -68.464463 
L 214.20004 -68.464463 
L 214.594354 -68.464463 
L 214.988669 -68.464463 
L 215.382983 -68.464463 
L 215.777297 -68.464463 
L 216.171612 -68.464463 
L 216.565926 -68.464463 
L 216.96024 -68.464463 
L 217.354555 -68.464463 
L 217.748869 -68.464463 
L 218.143183 -68.464463 
L 218.537497 -68.464463 
L 218.931812 -68.464463 
L 219.326126 -68.464463 
L 219.72044 -68.464463 
L 220.114755 -68.464463 
L 220.509069 -68.464463 
L 220.903383 -68.464463 
L 221.297698 -68.464463 
L 221.692012 -68.464463 
L 222.086326 -68.464463 
L 222.480641 -68.464463 
L 222.874955 -68.464463 
L 223.269269 -68.464463 
L 223.663584 -68.464463 
L 224.057898 -68.464463 
L 224.452212 -68.464463 
L 224.846527 -68.464463 
L 225.240841 -68.464463 
L 225.635155 -68.464463 
L 226.029469 -68.464463 
L 226.423784 -68.464463 
L 226.818098 -68.464463 
L 227.212412 -68.464463 
L 227.606727 -68.464463 
L 228.001041 -68.464463 
L 228.395355 -68.464463 
L 228.78967 -68.464463 
L 229.183984 -68.464463 
L 229.578298 -68.464463 
L 229.972613 -68.464463 
L 230.366927 -68.464463 
L 230.761241 -68.464463 
L 231.155556 -68.464463 
L 231.54987 -68.464463 
L 231.944184 -68.464463 
L 232.338498 -68.464463 
L 232.732813 -68.464463 
L 233.127127 -68.464463 
L 233.521441 -68.464463 
L 233.915756 -68.464463 
L 234.31007 -68.464463 
L 234.704384 -68.464463 
L 235.098699 -68.464463 
L 235.493013 -68.464463 
L 235.887327 -68.464463 
L 236.281642 -68.464463 
L 236.675956 -68.464463 
L 237.07027 -68.464463 
L 237.464585 -68.464463 
L 237.858899 -68.464463 
L 238.253213 -68.464463 
L 238.647528 -68.464463 
L 239.041842 -68.464463 
L 239.436156 -68.464463 
L 239.83047 -68.464463 
L 240.224785 -68.464463 
L 240.619099 -68.464463 
L 241.013413 -68.464463 
L 241.407728 -68.464463 
L 241.802042 -68.464463 
L 242.196356 -68.464463 
L 242.590671 -68.464463 
L 242.984985 -68.464463 
L 243.379299 -68.464463 
L 243.773614 -68.464463 
L 244.167928 -68.464463 
L 244.562242 -68.464463 
L 244.956557 -68.464463 
L 245.350871 -68.464463 
L 245.745185 -68.464463 
L 246.139499 -68.464463 
L 246.533814 -68.464463 
L 246.928128 -68.464463 
L 247.322442 -68.464463 
L 247.716757 -68.464463 
L 248.111071 -68.464463 
L 248.505385 -68.464463 
L 248.8997 -68.464463 
L 249.294014 -68.464463 
L 249.688328 -68.464463 
L 250.082643 -68.464463 
L 250.476957 -68.464463 
L 250.871271 -68.464463 
L 251.265586 -68.464463 
L 251.6599 -68.464463 
L 252.054214 -68.464463 
L 252.448529 -68.464463 
L 252.842843 -68.464463 
L 253.237157 -68.464463 
L 253.631471 -68.464463 
L 254.025786 -68.464463 
L 254.4201 -68.464463 
L 254.814414 -68.464463 
L 255.208729 -68.464463 
L 255.603043 -68.464463 
L 255.997357 -68.464463 
L 256.391672 -68.464463 
L 256.785986 -68.464463 
L 257.1803 -68.464463 
L 257.574615 -68.464463 
L 257.968929 -68.464463 
L 258.363243 -68.464463 
L 258.757558 -68.464463 
L 259.151872 -68.464463 
L 259.546186 -68.464463 
L 259.940501 -68.464463 
L 260.334815 -68.464463 
L 260.729129 -68.464463 
L 261.123443 -68.464463 
L 261.517758 -68.464463 
L 261.912072 -68.464463 
L 262.306386 -68.464463 
L 262.700701 -68.464463 
L 263.095015 -68.464463 
L 263.489329 -68.464463 
L 263.883644 -68.464463 
L 264.277958 -68.464463 
L 264.672272 -68.464463 
L 265.066587 -68.464463 
L 265.460901 -68.464463 
L 265.855215 -68.464463 
L 266.24953 -68.464463 
L 266.643844 -68.464463 
L 267.038158 -68.464463 
L 267.432472 -68.464463 
L 267.826787 -68.464463 
L 268.221101 -68.464463 
L 268.615415 -68.464463 
L 269.00973 -68.464463 
L 269.404044 -68.464463 
L 269.798358 -68.464463 
L 270.192673 -68.464463 
L 270.586987 -68.464463 
L 270.981301 -68.464463 
L 271.375616 -68.464463 
L 271.76993 -68.464463 
L 272.164244 -68.464463 
L 272.558559 -68.464463 
L 272.952873 -68.464463 
L 273.347187 -68.464463 
L 273.741502 -68.464463 
L 274.135816 -68.464463 
L 274.53013 -68.464463 
L 274.924444 -68.464463 
L 275.318759 -68.464463 
L 275.713073 -68.464463 
L 276.107387 -68.464463 
L 276.501702 -68.464463 
L 276.896016 -68.464463 
L 277.29033 -68.464463 
L 277.684645 -68.464463 
L 278.078959 -68.464463 
L 278.473273 -68.464463 
L 278.867588 -68.464463 
L 279.261902 -68.464463 
L 279.656216 -68.464463 
L 280.050531 -68.464463 
L 280.444845 -68.464463 
L 280.839159 -68.464463 
L 281.233473 -68.464463 
L 281.627788 -68.464463 
L 282.022102 -68.464463 
L 282.416416 -68.464463 
L 282.810731 -68.464463 
L 283.205045 -68.464463 
L 283.599359 -68.464463 
L 283.993674 -68.464463 
L 284.387988 -68.464463 
L 284.782302 -68.464463 
L 285.176617 -68.464463 
L 285.570931 -68.464463 
L 285.965245 -68.464463 
L 286.35956 -68.464463 
L 286.753874 -68.464463 
L 287.148188 -68.464463 
L 287.542503 -68.464463 
L 287.936817 -68.464463 
L 288.331131 -68.464463 
L 288.725445 -68.464463 
L 289.11976 -68.464463 
L 289.514074 -68.464463 
L 289.908388 -68.464463 
L 290.302703 -68.464463 
L 290.697017 -68.464463 
L 291.091331 -68.464463 
L 291.485646 -68.464463 
L 291.87996 -68.464463 
L 292.274274 -68.464463 
L 292.668589 -68.464463 
L 293.062903 -68.464463 
L 293.457217 -68.464463 
L 293.851532 -68.464463 
L 294.245846 -68.464463 
L 294.64016 -68.464463 
L 295.034474 -68.464463 
L 295.428789 -68.464463 
L 295.823103 -68.464463 
L 296.217417 -68.464463 
L 296.611732 -68.464463 
L 297.006046 -68.464463 
L 297.40036 -68.464463 
L 297.794675 -68.464463 
L 298.188989 -68.464463 
L 298.583303 -68.464463 
L 298.977618 -68.464463 
L 299.371932 -68.464463 
L 299.766246 -68.464463 
L 300.160561 -68.464463 
L 300.554875 -68.464463 
L 300.949189 -68.464463 
L 301.343504 -68.464463 
L 301.737818 -68.464463 
L 302.132132 -68.464463 
L 302.526446 -68.464463 
L 302.920761 -68.464463 
L 303.315075 -68.464463 
L 303.709389 -68.464463 
L 304.103704 -68.464463 
L 304.498018 -68.464463 
L 304.892332 -68.464463 
L 305.286647 -68.464463 
L 305.680961 -68.464463 
L 306.075275 -68.464463 
L 306.46959 -68.464463 
L 306.863904 -68.464463 
L 307.258218 -68.464463 
L 307.652533 -68.464463 
L 308.046847 -68.464463 
L 308.441161 -68.464463 
L 308.835475 -68.464463 
L 309.22979 -68.464463 
L 309.624104 -68.464463 
L 310.018418 -68.464463 
L 310.412733 -68.464463 
L 310.807047 -68.464463 
L 311.201361 -68.464463 
L 311.595676 -68.464463 
L 311.98999 -68.464463 
L 312.384304 -68.464463 
L 312.778619 -68.464463 
L 313.172933 -68.464463 
L 313.567247 -68.464463 
L 313.961562 -68.464463 
L 314.355876 -68.464463 
L 314.75019 -68.464463 
L 315.144505 -68.464463 
L 315.538819 -68.464463 
L 315.933133 -68.464463 
L 316.327447 -68.464463 
L 316.721762 -68.464463 
L 317.116076 -68.464463 
L 317.51039 -68.464463 
L 317.904705 -68.464463 
L 318.299019 -68.464463 
L 318.693333 -68.464463 
L 319.087648 -68.464463 
L 319.481962 -68.464463 
L 319.876276 -68.464463 
L 320.270591 -68.464463 
L 320.664905 -68.464463 
L 321.059219 -68.464463 
L 321.453534 -68.464463 
L 321.847848 -68.464463 
L 322.242162 -68.464463 
L 322.636476 -68.464463 
L 323.030791 -68.464463 
L 323.425105 -68.464463 
L 323.819419 -68.464463 
L 324.213734 -68.464463 
L 324.608048 -68.464463 
L 325.002362 -68.464463 
L 325.396677 -68.464463 
L 325.790991 -68.464463 
L 326.185305 -68.464463 
L 326.57962 -68.464463 
L 326.973934 -68.464463 
L 327.368248 -68.464463 
L 327.762563 -68.464463 
L 328.156877 -68.464463 
L 328.551191 -68.464463 
L 328.945506 -68.464463 
L 329.33982 -68.464463 
L 329.734134 -68.464463 
L 330.128448 -68.464463 
L 330.522763 -68.464463 
L 330.917077 -68.464463 
L 331.311391 -68.464463 
L 331.705706 -68.464463 
L 332.10002 -68.464463 
L 332.494334 -68.464463 
L 332.888649 -68.464463 
L 333.282963 -68.464463 
L 333.677277 -68.464463 
L 334.071592 -68.464463 
L 334.465906 -68.464463 
L 334.86022 -68.464463 
L 335.254535 -68.464463 
L 335.648849 -68.464463 
L 336.043163 -68.464463 
L 336.437477 -68.464463 
L 336.831792 -68.464463 
L 337.226106 -68.464463 
L 337.62042 -68.464463 
L 338.014735 -68.464463 
L 338.409049 -68.464463 
L 338.803363 -68.464463 
L 339.197678 -68.464463 
L 339.591992 -68.464463 
L 339.986306 -68.464463 
L 340.380621 -68.464463 
L 340.774935 -68.464463 
L 341.169249 -68.464463 
L 341.563564 -68.464463 
L 341.957878 -68.464463 
L 342.352192 -68.464463 
L 342.746507 -68.464463 
L 343.140821 -68.464463 
L 343.535135 -68.464463 
L 343.929449 -68.464463 
L 344.323764 -68.464463 
L 344.718078 -68.464463 
L 345.112392 -68.464463 
L 345.506707 -68.464463 
L 345.901021 -68.464463 
L 346.295335 -68.464463 
L 346.68965 -68.464463 
L 347.083964 -68.464463 
L 347.478278 -68.464463 
L 347.872593 -68.464463 
L 348.266907 -68.464463 
L 348.661221 -68.464463 
L 349.055536 -68.464463 
L 349.44985 -68.464463 
L 349.844164 -68.464463 
L 350.238478 -68.464463 
L 350.632793 -68.464463 
L 351.027107 -68.464463 
L 351.421421 -68.464463 
L 351.815736 -68.464463 
L 352.21005 -68.464463 
L 352.604364 -68.464463 
L 352.998679 -68.464463 
L 353.392993 -68.464463 
L 353.787307 -68.464463 
L 354.181622 -68.464463 
L 354.575936 -68.464463 
L 354.97025 -68.464463 
L 355.364565 -68.464463 
L 355.758879 -68.464463 
L 356.153193 -68.464463 
L 356.547508 -68.464463 
L 356.941822 -68.464463 
L 357.336136 -68.464463 
L 357.73045 -68.464463 
L 358.124765 -68.464463 
L 358.519079 -68.464463 
L 358.913393 -68.464463 
L 359.307708 -68.464463 
L 359.702022 -68.464463 
L 360.096336 -68.464463 
L 360.490651 -68.464463 
L 360.884965 -68.464463 
L 361.279279 -68.464463 
L 361.673594 -68.464463 
L 362.067908 -68.464463 
L 362.462222 -68.464463 
L 362.856537 -68.464463 
L 363.250851 -68.464463 
L 363.645165 -68.464463 
L 364.039479 -68.464463 
L 364.433794 -68.464463 
L 364.828108 -68.464463 
L 365.222422 -68.464463 
L 365.616737 -68.464463 
L 366.011051 -68.464463 
L 366.405365 -68.464463 
L 366.79968 -68.464463 
L 367.193994 -68.464463 
L 367.588308 -68.464463 
L 367.982623 -68.464463 
L 368.376937 -68.464463 
L 368.771251 -68.464463 
L 369.165566 -68.464463 
L 369.55988 -68.464463 
L 369.954194 -68.464463 
L 370.348509 -68.464463 
L 370.742823 -68.464463 
L 371.137137 -68.464463 
L 371.531451 -68.464463 
L 371.925766 -68.464463 
L 372.32008 -68.464463 
L 372.714394 -68.464463 
L 373.108709 -68.464463 
L 373.503023 -68.464463 
L 373.897337 -68.464463 
L 374.291652 -68.464463 
L 374.685966 -68.464463 
L 375.08028 -68.464463 
L 375.474595 -68.464463 
L 375.868909 -68.464463 
L 376.263223 -68.464463 
L 376.657538 -68.464463 
L 377.051852 -68.464463 
L 377.446166 -68.464463 
L 377.84048 -68.464463 
L 378.234795 -68.464463 
L 378.629109 -68.464463 
L 379.023423 -68.464463 
L 379.417738 -68.464463 
L 379.812052 -68.464463 
L 380.206366 -68.464463 
L 380.600681 -68.464463 
L 380.994995 -68.464463 
L 381.389309 -68.464463 
L 381.783624 -68.464463 
L 382.177938 -68.464463 
L 382.572252 -68.464463 
L 382.966567 -68.464463 
L 383.360881 -68.464463 
L 383.755195 -68.464463 
L 384.14951 -68.464463 
L 384.543824 -68.464463 
L 384.938138 -68.464463 
L 385.332452 -68.464463 
L 385.726767 -68.464463 
L 386.121081 -68.464463 
L 386.515395 -68.464463 
L 386.90971 -68.464463 
L 387.304024 -68.464463 
L 387.698338 -68.464463 
L 388.092653 -68.464463 
L 388.486967 -68.464463 
L 388.881281 -68.464463 
L 389.275596 -68.464463 
L 389.66991 -68.464463 
L 390.064224 -68.464463 
L 390.458539 -68.464463 
L 390.852853 -68.464463 
L 391.247167 -68.464463 
L 391.641481 -68.464463 
L 392.035796 -68.464463 
L 392.43011 -68.464463 
L 392.824424 -68.464463 
L 393.218739 -68.464463 
L 393.613053 -68.464463 
L 394.007367 -68.464463 
L 394.401682 -68.464463 
L 394.795996 -68.464463 
L 395.19031 -68.464463 
L 395.584625 -68.464463 
L 395.978939 -68.464463 
L 396.373253 -68.464463 
L 396.767568 -68.464463 
L 397.161882 -68.464463 
L 397.556196 -68.464463 
L 397.950511 -68.464463 
L 398.344825 -68.464463 
L 398.739139 -68.464463 
L 399.133453 -68.464463 
L 399.527768 -68.464463 
L 399.922082 -68.464463 
L 400.316396 -68.464463 
L 400.710711 -68.464463 
L 401.105025 -68.464463 
L 401.499339 -68.464463 
L 401.893654 -68.464463 
L 402.287968 -68.464463 
L 402.682282 -68.464463 
L 403.076597 -68.464463 
L 403.470911 -68.464463 
L 403.865225 -68.464463 
L 404.25954 -68.464463 
L 404.653854 -68.464463 
L 405.048168 -68.464463 
L 405.442482 -68.464463 
L 405.836797 -68.464463 
L 406.231111 -68.464463 
L 406.625425 -68.464463 
L 407.01974 -68.464463 
L 407.414054 -68.464463 
L 407.808368 -68.464463 
L 408.202683 -68.464463 
L 408.596997 -68.464463 
L 408.991311 -68.464463 
L 409.385626 -68.464463 
L 409.77994 -68.464463 
L 410.174254 -68.464463 
L 410.568569 -68.464463 
L 410.962883 -68.464463 
L 411.357197 -68.464463 
L 411.751512 -68.464463 
L 412.145826 -68.464463 
L 412.54014 -68.464463 
L 412.934454 -68.464463 
L 413.328769 -68.464463 
L 413.723083 -68.464463 
L 414.117397 -68.464463 
L 414.511712 -68.464463 
L 414.906026 -68.464463 
L 415.30034 -68.464463 
L 415.694655 -68.464463 
L 416.088969 -68.464463 
L 416.483283 -68.464463 
L 416.877598 -68.464463 
L 417.271912 -68.464463 
L 417.666226 -68.464463 
L 418.060541 -68.464463 
L 418.454855 -68.464463 
L 418.849169 -68.464463 
L 419.243483 -68.464463 
L 419.637798 -68.464463 
L 420.032112 -68.464463 
L 420.426426 -68.464463 
L 420.820741 -68.464463 
L 421.215055 -68.464463 
L 421.609369 -68.464463 
L 422.003684 -68.464463 
L 422.397998 -68.464463 
L 422.792312 -68.464463 
L 423.186627 -68.464463 
L 423.580941 -68.464463 
L 423.975255 -68.464463 
L 424.36957 -68.464463 
L 424.763884 -68.464463 
L 425.158198 -68.464463 
L 425.552513 -68.464463 
L 425.946827 -68.464463 
L 426.341141 -68.464463 
L 426.735455 -68.464463 
L 427.12977 -68.464463 
L 427.524084 -68.464463 
L 427.918398 -68.464463 
L 428.312713 -68.464463 
L 428.707027 -68.464463 
L 429.101341 -68.464463 
L 429.495656 -68.464463 
L 429.88997 -68.464463 
L 430.284284 -68.464463 
L 430.678599 -68.464463 
L 431.072913 -68.464463 
L 431.467227 -68.464463 
L 431.861542 -68.464463 
L 432.255856 -68.464463 
L 432.65017 -68.464463 
L 433.044484 -68.464463 
L 433.438799 -68.464463 
L 433.833113 -68.464463 
L 434.227427 -68.464463 
L 434.621742 -68.464463 
L 435.016056 -68.464463 
L 435.41037 -68.464463 
L 435.804685 -68.464463 
L 436.198999 -68.464463 
L 436.593313 -68.464463 
L 436.987628 -68.464463 
L 437.381942 -68.464463 
L 437.776256 -68.464463 
L 438.170571 -68.464463 
L 438.564885 -68.464463 
L 438.959199 -68.464463 
L 439.353514 -68.464463 
L 439.747828 -68.464463 
L 440.142142 -68.464463 
L 440.536456 -68.464463 
L 440.930771 -68.464463 
L 441.325085 -68.464463 
L 441.719399 -68.464463 
L 442.113714 -68.464463 
L 442.508028 -68.464463 
L 442.902342 -68.464463 
L 443.296657 -68.464463 
L 443.690971 -68.464463 
L 444.085285 -68.464463 
L 444.4796 -68.464463 
L 444.873914 -68.464463 
L 445.268228 -68.464463 
L 445.662543 -68.464463 
L 446.056857 -68.464463 
L 446.451171 -68.464463 
L 446.845485 -68.464463 
L 447.2398 -68.464463 
L 447.634114 -68.464463 
L 448.028428 -68.464463 
L 448.422743 -68.464463 
L 448.817057 -68.464463 
L 449.211371 -68.464463 
L 449.605686 -68.464463 
L 450 -68.464463 
L 450 -68.464463 
L 450 -68.464463 
L 449.605686 -68.464463 
L 449.211371 -68.464463 
L 448.817057 -68.464463 
L 448.422743 -68.464463 
L 448.028428 -68.464463 
L 447.634114 -68.464463 
L 447.2398 -68.464463 
L 446.845485 -68.464463 
L 446.451171 -68.464463 
L 446.056857 -68.464463 
L 445.662543 -68.464463 
L 445.268228 -68.464463 
L 444.873914 -68.464463 
L 444.4796 -68.464463 
L 444.085285 -68.464463 
L 443.690971 -68.464463 
L 443.296657 -68.464463 
L 442.902342 -68.464463 
L 442.508028 -68.464463 
L 442.113714 -68.464463 
L 441.719399 -68.464463 
L 441.325085 -68.464463 
L 440.930771 -68.464463 
L 440.536456 -68.464464 
L 440.142142 -68.464464 
L 439.747828 -68.464464 
L 439.353514 -68.464464 
L 438.959199 -68.464465 
L 438.564885 -68.464465 
L 438.170571 -68.464466 
L 437.776256 -68.464466 
L 437.381942 -68.464467 
L 436.987628 -68.464468 
L 436.593313 -68.464469 
L 436.198999 -68.46447 
L 435.804685 -68.464472 
L 435.41037 -68.464474 
L 435.016056 -68.464477 
L 434.621742 -68.464479 
L 434.227427 -68.464483 
L 433.833113 -68.464487 
L 433.438799 -68.464492 
L 433.044484 -68.464498 
L 432.65017 -68.464506 
L 432.255856 -68.464514 
L 431.861542 -68.464524 
L 431.467227 -68.464536 
L 431.072913 -68.464551 
L 430.678599 -68.464568 
L 430.284284 -68.464588 
L 429.88997 -68.464611 
L 429.495656 -68.464638 
L 429.101341 -68.464671 
L 428.707027 -68.464708 
L 428.312713 -68.464752 
L 427.918398 -68.464803 
L 427.524084 -68.464863 
L 427.12977 -68.464931 
L 426.735455 -68.465011 
L 426.341141 -68.465103 
L 425.946827 -68.465209 
L 425.552513 -68.465331 
L 425.158198 -68.465471 
L 424.763884 -68.465632 
L 424.36957 -68.465815 
L 423.975255 -68.466024 
L 423.580941 -68.466263 
L 423.186627 -68.466534 
L 422.792312 -68.466841 
L 422.397998 -68.467189 
L 422.003684 -68.467581 
L 421.609369 -68.468024 
L 421.215055 -68.468522 
L 420.820741 -68.469081 
L 420.426426 -68.469707 
L 420.032112 -68.470407 
L 419.637798 -68.471188 
L 419.243483 -68.472057 
L 418.849169 -68.473023 
L 418.454855 -68.474094 
L 418.060541 -68.475278 
L 417.666226 -68.476585 
L 417.271912 -68.478025 
L 416.877598 -68.479608 
L 416.483283 -68.481344 
L 416.088969 -68.483244 
L 415.694655 -68.485319 
L 415.30034 -68.48758 
L 414.906026 -68.490039 
L 414.511712 -68.492706 
L 414.117397 -68.495593 
L 413.723083 -68.498711 
L 413.328769 -68.502072 
L 412.934454 -68.505686 
L 412.54014 -68.509563 
L 412.145826 -68.513712 
L 411.751512 -68.518143 
L 411.357197 -68.522864 
L 410.962883 -68.527881 
L 410.568569 -68.533202 
L 410.174254 -68.53883 
L 409.77994 -68.544769 
L 409.385626 -68.551022 
L 408.991311 -68.557587 
L 408.596997 -68.564464 
L 408.202683 -68.571649 
L 407.808368 -68.579136 
L 407.414054 -68.586918 
L 407.01974 -68.594985 
L 406.625425 -68.603325 
L 406.231111 -68.611923 
L 405.836797 -68.620763 
L 405.442482 -68.629824 
L 405.048168 -68.639086 
L 404.653854 -68.648524 
L 404.25954 -68.658113 
L 403.865225 -68.667823 
L 403.470911 -68.677624 
L 403.076597 -68.687483 
L 402.682282 -68.697367 
L 402.287968 -68.707239 
L 401.893654 -68.717062 
L 401.499339 -68.726797 
L 401.105025 -68.736405 
L 400.710711 -68.745847 
L 400.316396 -68.755082 
L 399.922082 -68.764069 
L 399.527768 -68.77277 
L 399.133453 -68.781145 
L 398.739139 -68.789157 
L 398.344825 -68.796768 
L 397.950511 -68.803944 
L 397.556196 -68.810652 
L 397.161882 -68.816863 
L 396.767568 -68.822548 
L 396.373253 -68.827685 
L 395.978939 -68.832251 
L 395.584625 -68.836231 
L 395.19031 -68.839611 
L 394.795996 -68.842383 
L 394.401682 -68.844541 
L 394.007367 -68.846088 
L 393.613053 -68.847026 
L 393.218739 -68.847367 
L 392.824424 -68.847125 
L 392.43011 -68.84632 
L 392.035796 -68.844976 
L 391.641481 -68.843122 
L 391.247167 -68.840793 
L 390.852853 -68.838027 
L 390.458539 -68.834868 
L 390.064224 -68.831363 
L 389.66991 -68.827563 
L 389.275596 -68.823524 
L 388.881281 -68.819305 
L 388.486967 -68.814968 
L 388.092653 -68.810577 
L 387.698338 -68.8062 
L 387.304024 -68.801906 
L 386.90971 -68.797768 
L 386.515395 -68.793857 
L 386.121081 -68.790247 
L 385.726767 -68.787012 
L 385.332452 -68.784227 
L 384.938138 -68.781966 
L 384.543824 -68.780302 
L 384.14951 -68.779306 
L 383.755195 -68.779051 
L 383.360881 -68.779604 
L 382.966567 -68.781033 
L 382.572252 -68.7834 
L 382.177938 -68.786767 
L 381.783624 -68.791191 
L 381.389309 -68.796725 
L 380.994995 -68.803419 
L 380.600681 -68.811319 
L 380.206366 -68.820465 
L 379.812052 -68.830892 
L 379.417738 -68.842631 
L 379.023423 -68.855709 
L 378.629109 -68.870144 
L 378.234795 -68.885951 
L 377.84048 -68.90314 
L 377.446166 -68.921712 
L 377.051852 -68.941666 
L 376.657538 -68.962993 
L 376.263223 -68.985679 
L 375.868909 -69.009704 
L 375.474595 -69.035043 
L 375.08028 -69.061666 
L 374.685966 -69.089536 
L 374.291652 -69.118614 
L 373.897337 -69.148853 
L 373.503023 -69.180206 
L 373.108709 -69.212619 
L 372.714394 -69.246034 
L 372.32008 -69.280394 
L 371.925766 -69.315635 
L 371.531451 -69.351694 
L 371.137137 -69.388505 
L 370.742823 -69.426001 
L 370.348509 -69.464117 
L 369.954194 -69.502787 
L 369.55988 -69.541944 
L 369.165566 -69.581526 
L 368.771251 -69.621472 
L 368.376937 -69.661723 
L 367.982623 -69.702225 
L 367.588308 -69.742929 
L 367.193994 -69.783788 
L 366.79968 -69.824764 
L 366.405365 -69.865823 
L 366.011051 -69.906938 
L 365.616737 -69.94809 
L 365.222422 -69.989268 
L 364.828108 -70.030469 
L 364.433794 -70.071697 
L 364.039479 -70.112968 
L 363.645165 -70.154306 
L 363.250851 -70.195745 
L 362.856537 -70.237328 
L 362.462222 -70.279111 
L 362.067908 -70.321157 
L 361.673594 -70.363541 
L 361.279279 -70.406349 
L 360.884965 -70.449676 
L 360.490651 -70.49363 
L 360.096336 -70.538327 
L 359.702022 -70.583893 
L 359.307708 -70.630465 
L 358.913393 -70.67819 
L 358.519079 -70.727223 
L 358.124765 -70.77773 
L 357.73045 -70.829882 
L 357.336136 -70.883862 
L 356.941822 -70.93986 
L 356.547508 -70.998071 
L 356.153193 -71.058699 
L 355.758879 -71.121952 
L 355.364565 -71.188047 
L 354.97025 -71.257203 
L 354.575936 -71.329644 
L 354.181622 -71.405598 
L 353.787307 -71.485297 
L 353.392993 -71.568973 
L 352.998679 -71.656861 
L 352.604364 -71.749198 
L 352.21005 -71.846221 
L 351.815736 -71.948165 
L 351.421421 -72.055265 
L 351.027107 -72.167755 
L 350.632793 -72.285867 
L 350.238478 -72.409827 
L 349.844164 -72.53986 
L 349.44985 -72.676186 
L 349.055536 -72.81902 
L 348.661221 -72.96857 
L 348.266907 -73.125039 
L 347.872593 -73.288623 
L 347.478278 -73.45951 
L 347.083964 -73.637879 
L 346.68965 -73.823902 
L 346.295335 -74.017741 
L 345.901021 -74.219547 
L 345.506707 -74.429462 
L 345.112392 -74.647616 
L 344.718078 -74.874128 
L 344.323764 -75.109104 
L 343.929449 -75.352638 
L 343.535135 -75.604812 
L 343.140821 -75.865691 
L 342.746507 -76.13533 
L 342.352192 -76.413765 
L 341.957878 -76.701021 
L 341.563564 -76.997104 
L 341.169249 -77.302006 
L 340.774935 -77.615701 
L 340.380621 -77.938149 
L 339.986306 -78.26929 
L 339.591992 -78.609048 
L 339.197678 -78.957329 
L 338.803363 -79.314021 
L 338.409049 -79.678995 
L 338.014735 -80.052104 
L 337.62042 -80.433182 
L 337.226106 -80.822048 
L 336.831792 -81.218503 
L 336.437477 -81.622331 
L 336.043163 -82.033299 
L 335.648849 -82.451163 
L 335.254535 -82.875659 
L 334.86022 -83.306517 
L 334.465906 -83.743448 
L 334.071592 -84.18616 
L 333.677277 -84.634347 
L 333.282963 -85.0877 
L 332.888649 -85.545903 
L 332.494334 -86.008641 
L 332.10002 -86.475596 
L 331.705706 -86.946455 
L 331.311391 -87.420911 
L 330.917077 -87.898662 
L 330.522763 -88.379422 
L 330.128448 -88.862916 
L 329.734134 -89.34889 
L 329.33982 -89.837107 
L 328.945506 -90.327356 
L 328.551191 -90.819454 
L 328.156877 -91.313247 
L 327.762563 -91.808613 
L 327.368248 -92.305469 
L 326.973934 -92.803766 
L 326.57962 -93.303501 
L 326.185305 -93.804709 
L 325.790991 -94.307475 
L 325.396677 -94.811926 
L 325.002362 -95.318239 
L 324.608048 -95.826638 
L 324.213734 -96.337398 
L 323.819419 -96.850841 
L 323.425105 -97.367336 
L 323.030791 -97.887303 
L 322.636476 -98.411205 
L 322.242162 -98.93955 
L 321.847848 -99.472887 
L 321.453534 -100.011806 
L 321.059219 -100.556931 
L 320.664905 -101.108918 
L 320.270591 -101.668455 
L 319.876276 -102.236248 
L 319.481962 -102.813029 
L 319.087648 -103.39954 
L 318.693333 -103.996535 
L 318.299019 -104.604772 
L 317.904705 -105.225007 
L 317.51039 -105.857992 
L 317.116076 -106.504465 
L 316.721762 -107.165147 
L 316.327447 -107.84074 
L 315.933133 -108.531915 
L 315.538819 -109.239313 
L 315.144505 -109.963537 
L 314.75019 -110.705149 
L 314.355876 -111.464668 
L 313.961562 -112.24256 
L 313.567247 -113.039244 
L 313.172933 -113.855082 
L 312.778619 -114.690378 
L 312.384304 -115.545381 
L 311.98999 -116.420276 
L 311.595676 -117.315189 
L 311.201361 -118.230186 
L 310.807047 -119.16527 
L 310.412733 -120.120383 
L 310.018418 -121.09541 
L 309.624104 -122.090174 
L 309.22979 -123.104444 
L 308.835475 -124.137932 
L 308.441161 -125.1903 
L 308.046847 -126.261158 
L 307.652533 -127.350068 
L 307.258218 -128.456548 
L 306.863904 -129.580074 
L 306.46959 -130.720083 
L 306.075275 -131.875975 
L 305.680961 -133.047116 
L 305.286647 -134.232842 
L 304.892332 -135.432459 
L 304.498018 -136.645248 
L 304.103704 -137.870465 
L 303.709389 -139.107345 
L 303.315075 -140.3551 
L 302.920761 -141.612925 
L 302.526446 -142.879996 
L 302.132132 -144.155474 
L 301.737818 -145.438503 
L 301.343504 -146.728211 
L 300.949189 -148.023712 
L 300.554875 -149.324108 
L 300.160561 -150.628484 
L 299.766246 -151.935915 
L 299.371932 -153.245462 
L 298.977618 -154.556176 
L 298.583303 -155.867095 
L 298.188989 -157.177251 
L 297.794675 -158.485666 
L 297.40036 -159.791357 
L 297.006046 -161.093336 
L 296.611732 -162.390617 
L 296.217417 -163.682216 
L 295.823103 -164.967153 
L 295.428789 -166.244462 
L 295.034474 -167.513192 
L 294.64016 -168.772413 
L 294.245846 -170.021223 
L 293.851532 -171.258753 
L 293.457217 -172.484178 
L 293.062903 -173.696717 
L 292.668589 -174.895649 
L 292.274274 -176.080315 
L 291.87996 -177.25013 
L 291.485646 -178.404587 
L 291.091331 -179.54327 
L 290.697017 -180.665858 
L 290.302703 -181.772135 
L 289.908388 -182.861997 
L 289.514074 -183.935458 
L 289.11976 -184.992654 
L 288.725445 -186.033853 
L 288.331131 -187.059456 
L 287.936817 -188.069999 
L 287.542503 -189.066159 
L 287.148188 -190.048751 
L 286.753874 -191.018731 
L 286.35956 -191.977189 
L 285.965245 -192.925353 
L 285.570931 -193.864578 
L 285.176617 -194.79634 
L 284.782302 -195.722235 
L 284.387988 -196.643962 
L 283.993674 -197.563315 
L 283.599359 -198.482175 
L 283.205045 -199.402493 
L 282.810731 -200.326276 
L 282.416416 -201.255575 
L 282.022102 -202.192466 
L 281.627788 -203.139037 
L 281.233473 -204.097365 
L 280.839159 -205.069509 
L 280.444845 -206.057481 
L 280.050531 -207.063237 
L 279.656216 -208.088657 
L 279.261902 -209.135529 
L 278.867588 -210.205532 
L 278.473273 -211.300223 
L 278.078959 -212.42102 
L 277.684645 -213.569193 
L 277.29033 -214.745849 
L 276.896016 -215.951923 
L 276.501702 -217.188171 
L 276.107387 -218.455159 
L 275.713073 -219.753264 
L 275.318759 -221.082665 
L 274.924444 -222.443342 
L 274.53013 -223.835081 
L 274.135816 -225.25747 
L 273.741502 -226.709908 
L 273.347187 -228.191605 
L 272.952873 -229.701596 
L 272.558559 -231.238741 
L 272.164244 -232.801744 
L 271.76993 -234.389157 
L 271.375616 -235.999397 
L 270.981301 -237.630758 
L 270.586987 -239.281423 
L 270.192673 -240.949481 
L 269.798358 -242.632943 
L 269.404044 -244.329755 
L 269.00973 -246.037812 
L 268.615415 -247.754979 
L 268.221101 -249.479099 
L 267.826787 -251.208012 
L 267.432472 -252.939568 
L 267.038158 -254.671637 
L 266.643844 -256.402127 
L 266.24953 -258.128987 
L 265.855215 -259.850225 
L 265.460901 -261.563911 
L 265.066587 -263.268189 
L 264.672272 -264.961281 
L 264.277958 -266.641491 
L 263.883644 -268.307212 
L 263.489329 -269.956928 
L 263.095015 -271.589212 
L 262.700701 -273.202733 
L 262.306386 -274.796251 
L 261.912072 -276.368615 
L 261.517758 -277.918765 
L 261.123443 -279.445725 
L 260.729129 -280.948601 
L 260.334815 -282.426579 
L 259.940501 -283.878917 
L 259.546186 -285.304943 
L 259.151872 -286.704052 
L 258.757558 -288.075696 
L 258.363243 -289.419384 
L 257.968929 -290.734677 
L 257.574615 -292.021183 
L 257.1803 -293.278553 
L 256.785986 -294.506479 
L 256.391672 -295.70469 
L 255.997357 -296.872951 
L 255.603043 -298.011059 
L 255.208729 -299.118844 
L 254.814414 -300.196165 
L 254.4201 -301.242912 
L 254.025786 -302.259007 
L 253.631471 -303.2444 
L 253.237157 -304.199073 
L 252.842843 -305.123041 
L 252.448529 -306.016352 
L 252.054214 -306.879089 
L 251.6599 -307.711369 
L 251.265586 -308.513349 
L 250.871271 -309.285223 
L 250.476957 -310.027227 
L 250.082643 -310.739635 
L 249.688328 -311.422766 
L 249.294014 -312.076982 
L 248.8997 -312.702685 
L 248.505385 -313.300322 
L 248.111071 -313.870383 
L 247.716757 -314.4134 
L 247.322442 -314.929946 
L 246.928128 -315.420632 
L 246.533814 -315.886109 
L 246.139499 -316.327062 
L 245.745185 -316.744211 
L 245.350871 -317.138302 
L 244.956557 -317.510114 
L 244.562242 -317.860444 
L 244.167928 -318.190112 
L 243.773614 -318.499953 
L 243.379299 -318.790814 
L 242.984985 -319.063549 
L 242.590671 -319.319016 
L 242.196356 -319.558069 
L 241.802042 -319.781557 
L 241.407728 -319.99032 
L 241.013413 -320.185179 
L 240.619099 -320.366935 
L 240.224785 -320.536364 
L 239.83047 -320.694213 
L 239.436156 -320.84119 
L 239.041842 -320.977968 
L 238.647528 -321.105171 
L 238.253213 -321.223379 
L 237.858899 -321.333115 
L 237.464585 -321.434847 
L 237.07027 -321.528982 
L 236.675956 -321.61586 
L 236.281642 -321.695756 
L 235.887327 -321.768871 
L 235.493013 -321.835336 
L 235.098699 -321.895202 
L 234.704384 -321.948444 
L 234.31007 -321.994958 
L 233.915756 -322.03456 
L 233.521441 -322.066984 
L 233.127127 -322.091887 
L 232.732813 -322.108844 
L 232.338498 -322.117355 
L 231.944184 -322.116844 
L 231.54987 -322.106662 
L 231.155556 -322.086093 
L 230.761241 -322.054357 
L 230.366927 -322.010615 
L 229.972613 -321.953975 
L 229.578298 -321.8835 
L 229.183984 -321.79821 
L 228.78967 -321.697099 
L 228.395355 -321.579133 
L 228.001041 -321.443267 
L 227.606727 -321.288448 
L 227.212412 -321.113629 
L 226.818098 -320.917778 
L 226.423784 -320.699886 
L 226.029469 -320.458978 
L 225.635155 -320.194124 
L 225.240841 -319.904448 
L 224.846527 -319.589138 
L 224.452212 -319.247456 
L 224.057898 -318.878744 
L 223.663584 -318.482438 
L 223.269269 -318.058071 
L 222.874955 -317.60528 
L 222.480641 -317.123817 
L 222.086326 -316.613549 
L 221.692012 -316.074466 
L 221.297698 -315.506684 
L 220.903383 -314.910445 
L 220.509069 -314.286121 
L 220.114755 -313.634213 
L 219.72044 -312.955353 
L 219.326126 -312.250295 
L 218.931812 -311.519921 
L 218.537497 -310.765229 
L 218.143183 -309.987332 
L 217.748869 -309.187452 
L 217.354555 -308.366909 
L 216.96024 -307.527116 
L 216.565926 -306.669571 
L 216.171612 -305.795844 
L 215.777297 -304.907569 
L 215.382983 -304.006431 
L 214.988669 -303.094158 
L 214.594354 -302.172506 
L 214.20004 -301.24325 
L 213.805726 -300.308169 
L 213.411411 -299.369036 
L 213.017097 -298.427606 
L 212.622783 -297.485603 
L 212.228468 -296.54471 
L 211.834154 -295.606556 
L 211.43984 -294.672708 
L 211.045526 -293.744661 
L 210.651211 -292.823824 
L 210.256897 -291.911518 
L 209.862583 -291.008965 
L 209.468268 -290.117281 
L 209.073954 -289.23747 
L 208.67964 -288.37042 
L 208.285325 -287.516899 
L 207.891011 -286.67755 
L 207.496697 -285.852893 
L 207.102382 -285.043319 
L 206.708068 -284.249095 
L 206.313754 -283.470359 
L 205.919439 -282.707128 
L 205.525125 -281.959298 
L 205.130811 -281.226644 
L 204.736496 -280.508833 
L 204.342182 -279.805421 
L 203.947868 -279.115861 
L 203.553554 -278.439514 
L 203.159239 -277.775648 
L 202.764925 -277.123451 
L 202.370611 -276.482038 
L 201.976296 -275.850457 
L 201.581982 -275.227696 
L 201.187668 -274.612697 
L 200.793353 -274.004356 
L 200.399039 -273.401539 
L 200.004725 -272.803084 
L 199.61041 -272.207812 
L 199.216096 -271.614533 
L 198.821782 -271.022053 
L 198.427467 -270.429184 
L 198.033153 -269.834745 
L 197.638839 -269.237571 
L 197.244525 -268.636518 
L 196.85021 -268.030467 
L 196.455896 -267.418332 
L 196.061582 -266.799057 
L 195.667267 -266.171626 
L 195.272953 -265.53506 
L 194.878639 -264.888426 
L 194.484324 -264.230833 
L 194.09001 -263.561437 
L 193.695696 -262.879441 
L 193.301381 -262.184096 
L 192.907067 -261.474701 
L 192.512753 -260.750607 
L 192.118438 -260.011213 
L 191.724124 -259.255968 
L 191.32981 -258.484374 
L 190.935495 -257.69598 
L 190.541181 -256.89039 
L 190.146867 -256.067257 
L 189.752553 -255.22629 
L 189.358238 -254.367246 
L 188.963924 -253.489942 
L 188.56961 -252.594246 
L 188.175295 -251.680084 
L 187.780981 -250.747442 
L 187.386667 -249.796362 
L 186.992352 -248.82695 
L 186.598038 -247.839375 
L 186.203724 -246.833868 
L 185.809409 -245.810731 
L 185.415095 -244.770328 
L 185.020781 -243.713098 
L 184.626466 -242.639546 
L 184.232152 -241.550249 
L 183.837838 -240.445857 
L 183.443524 -239.327088 
L 183.049209 -238.194731 
L 182.654895 -237.049645 
L 182.260581 -235.892754 
L 181.866266 -234.725046 
L 181.471952 -233.54757 
L 181.077638 -232.361428 
L 180.683323 -231.167774 
L 180.289009 -229.967807 
L 179.894695 -228.76276 
L 179.50038 -227.553897 
L 179.106066 -226.342504 
L 178.711752 -225.129876 
L 178.317437 -223.917311 
L 177.923123 -222.7061 
L 177.528809 -221.497511 
L 177.134494 -220.292785 
L 176.74018 -219.093119 
L 176.345866 -217.89966 
L 175.951552 -216.713486 
L 175.557237 -215.535605 
L 175.162923 -214.366937 
L 174.768609 -213.208305 
L 174.374294 -212.06043 
L 173.97998 -210.923916 
L 173.585666 -209.79925 
L 173.191351 -208.686789 
L 172.797037 -207.586759 
L 172.402723 -206.499249 
L 172.008408 -205.424211 
L 171.614094 -204.361455 
L 171.21978 -203.310657 
L 170.825465 -202.271352 
L 170.431151 -201.242946 
L 170.036837 -200.224718 
L 169.642523 -199.215827 
L 169.248208 -198.215319 
L 168.853894 -197.222143 
L 168.45958 -196.235156 
L 168.065265 -195.253137 
L 167.670951 -194.274804 
L 167.276637 -193.298822 
L 166.882322 -192.323827 
L 166.488008 -191.348432 
L 166.093694 -190.371251 
L 165.699379 -189.390912 
L 165.305065 -188.406072 
L 164.910751 -187.415438 
L 164.516436 -186.417775 
L 164.122122 -185.411929 
L 163.727808 -184.396836 
L 163.333493 -183.371537 
L 162.939179 -182.335192 
L 162.544865 -181.287085 
L 162.150551 -180.226643 
L 161.756236 -179.153435 
L 161.361922 -178.067183 
L 160.967608 -176.967767 
L 160.573293 -175.855224 
L 160.178979 -174.729757 
L 159.784665 -173.591727 
L 159.39035 -172.441655 
L 158.996036 -171.280218 
L 158.601722 -170.108244 
L 158.207407 -168.926705 
L 157.813093 -167.736709 
L 157.418779 -166.53949 
L 157.024464 -165.336399 
L 156.63015 -164.128893 
L 156.235836 -162.918522 
L 155.841522 -161.706915 
L 155.447207 -160.49577 
L 155.052893 -159.286837 
L 154.658579 -158.081907 
L 154.264264 -156.882793 
L 153.86995 -155.691324 
L 153.475636 -154.509326 
L 153.081321 -153.338609 
L 152.687007 -152.180956 
L 152.292693 -151.038111 
L 151.898378 -149.911765 
L 151.504064 -148.803551 
L 151.10975 -147.715027 
L 150.715435 -146.647672 
L 150.321121 -145.602879 
L 149.926807 -144.581942 
L 149.532492 -143.586057 
L 149.138178 -142.616313 
L 148.743864 -141.673689 
L 148.34955 -140.75905 
L 147.955235 -139.873147 
L 147.560921 -139.016613 
L 147.166607 -138.189965 
L 146.772292 -137.393602 
L 146.377978 -136.627807 
L 145.983664 -135.892748 
L 145.589349 -135.188482 
L 145.195035 -134.514954 
L 144.800721 -133.872006 
L 144.406406 -133.259374 
L 144.012092 -132.676695 
L 143.617778 -132.123514 
L 143.223463 -131.59928 
L 142.829149 -131.103362 
L 142.434835 -130.635045 
L 142.040521 -130.193535 
L 141.646206 -129.777971 
L 141.251892 -129.387422 
L 140.857578 -129.020897 
L 140.463263 -128.677345 
L 140.068949 -128.355666 
L 139.674635 -128.05471 
L 139.28032 -127.773284 
L 138.886006 -127.510157 
L 138.491692 -127.264063 
L 138.097377 -127.033704 
L 137.703063 -126.81776 
L 137.308749 -126.614883 
L 136.914434 -126.42371 
L 136.52012 -126.242862 
L 136.125806 -126.070948 
L 135.731491 -125.906567 
L 135.337177 -125.748316 
L 134.942863 -125.594787 
L 134.548549 -125.444574 
L 134.154234 -125.296272 
L 133.75992 -125.148486 
L 133.365606 -124.999826 
L 132.971291 -124.848914 
L 132.576977 -124.694389 
L 132.182663 -124.534901 
L 131.788348 -124.369122 
L 131.394034 -124.195744 
L 130.99972 -124.013484 
L 130.605405 -123.821082 
L 130.211091 -123.617311 
L 129.816777 -123.400972 
L 129.422462 -123.1709 
L 129.028148 -122.92597 
L 128.633834 -122.665094 
L 128.23952 -122.38723 
L 127.845205 -122.091378 
L 127.450891 -121.776593 
L 127.056577 -121.441979 
L 126.662262 -121.086698 
L 126.267948 -120.709973 
L 125.873634 -120.31109 
L 125.479319 -119.889404 
L 125.085005 -119.44434 
L 124.690691 -118.9754 
L 124.296376 -118.482165 
L 123.902062 -117.964296 
L 123.507748 -117.421543 
L 123.113433 -116.853745 
L 122.719119 -116.260832 
L 122.324805 -115.64283 
L 121.93049 -114.999861 
L 121.536176 -114.332149 
L 121.141862 -113.640016 
L 120.747548 -112.923887 
L 120.353233 -112.18429 
L 119.958919 -111.421854 
L 119.564605 -110.63731 
L 119.17029 -109.83149 
L 118.775976 -109.005322 
L 118.381662 -108.159831 
L 117.987347 -107.296134 
L 117.593033 -106.415435 
L 117.198719 -105.519023 
L 116.804404 -104.608263 
L 116.41009 -103.684592 
L 116.015776 -102.749514 
L 115.621461 -101.80459 
L 115.227147 -100.851431 
L 114.832833 -99.891692 
L 114.438519 -98.927061 
L 114.044204 -97.959251 
L 113.64989 -96.989992 
L 113.255576 -96.021021 
L 112.861261 -95.054073 
L 112.466947 -94.090872 
L 112.072633 -93.133121 
L 111.678318 -92.182496 
L 111.284004 -91.240631 
L 110.88969 -90.309118 
L 110.495375 -89.389492 
L 110.101061 -88.483226 
L 109.706747 -87.591726 
L 109.312432 -86.716322 
L 108.918118 -85.858262 
L 108.523804 -85.01871 
L 108.129489 -84.198738 
L 107.735175 -83.399324 
L 107.340861 -82.621349 
L 106.946547 -81.865595 
L 106.552232 -81.132744 
L 106.157918 -80.423374 
L 105.763604 -79.737965 
L 105.369289 -79.076896 
L 104.974975 -78.440444 
L 104.580661 -77.828793 
L 104.186346 -77.24203 
L 103.792032 -76.680153 
L 103.397718 -76.143071 
L 103.003403 -75.630612 
L 102.609089 -75.142525 
L 102.214775 -74.678485 
L 101.82046 -74.238099 
L 101.426146 -73.820912 
L 101.031832 -73.426412 
L 100.637518 -73.054034 
L 100.243203 -72.703171 
L 99.848889 -72.373172 
L 99.454575 -72.063354 
L 99.06026 -71.773007 
L 98.665946 -71.501396 
L 98.271632 -71.247768 
L 97.877317 -71.011358 
L 97.483003 -70.791394 
L 97.088689 -70.5871 
L 96.694374 -70.397701 
L 96.30006 -70.222426 
L 95.905746 -70.060515 
L 95.511431 -69.911217 
L 95.117117 -69.773798 
L 94.722803 -69.647539 
L 94.328488 -69.531745 
L 93.934174 -69.425738 
L 93.53986 -69.328866 
L 93.145546 -69.240501 
L 92.751231 -69.160041 
L 92.356917 -69.086912 
L 91.962603 -69.020565 
L 91.568288 -68.96048 
L 91.173974 -68.906163 
L 90.77966 -68.85715 
L 90.385345 -68.813002 
L 89.991031 -68.773308 
L 89.596717 -68.737684 
L 89.202402 -68.705769 
L 88.808088 -68.677229 
L 88.413774 -68.651753 
L 88.019459 -68.629054 
L 87.625145 -68.608864 
L 87.230831 -68.59094 
L 86.836517 -68.575055 
L 86.442202 -68.561004 
L 86.047888 -68.548596 
L 85.653574 -68.53766 
L 85.259259 -68.528038 
L 84.864945 -68.519588 
L 84.470631 -68.51218 
L 84.076316 -68.505698 
L 83.682002 -68.500036 
L 83.287688 -68.4951 
L 82.893373 -68.490803 
L 82.499059 -68.487071 
L 82.104745 -68.483834 
L 81.71043 -68.481033 
L 81.316116 -68.478612 
L 80.921802 -68.476525 
L 80.527487 -68.474727 
L 80.133173 -68.473183 
L 79.738859 -68.471858 
L 79.344545 -68.470724 
L 78.95023 -68.469755 
L 78.555916 -68.468928 
L 78.161602 -68.468223 
L 77.767287 -68.467625 
L 77.372973 -68.467117 
L 76.978659 -68.466686 
L 76.584344 -68.466323 
L 76.19003 -68.466016 
L 75.795716 -68.465757 
L 75.401401 -68.46554 
L 75.007087 -68.465358 
L 74.612773 -68.465205 
L 74.218458 -68.465077 
L 73.824144 -68.46497 
L 73.42983 -68.464881 
L 73.035516 -68.464808 
L 72.641201 -68.464746 
L 72.246887 -68.464695 
L 71.852573 -68.464653 
L 71.458258 -68.464619 
L 71.063944 -68.46459 
L 70.66963 -68.464566 
L 70.275315 -68.464547 
L 69.881001 -68.464531 
L 69.486687 -68.464518 
L 69.092372 -68.464508 
L 68.698058 -68.464499 
L 68.303744 -68.464492 
L 67.909429 -68.464486 
L 67.515115 -68.464482 
L 67.120801 -68.464478 
L 66.726486 -68.464475 
L 66.332172 -68.464473 
L 65.937858 -68.464471 
L 65.543544 -68.464469 
L 65.149229 -68.464468 
L 64.754915 -68.464467 
L 64.360601 -68.464466 
L 63.966286 -68.464465 
L 63.571972 -68.464465 
L 63.177658 -68.464464 
L 62.783343 -68.464464 
L 62.389029 -68.464464 
L 61.994715 -68.464464 
L 61.6004 -68.464463 
L 61.206086 -68.464463 
L 60.811772 -68.464463 
L 60.417457 -68.464463 
L 60.023143 -68.464463 
L 59.628829 -68.464463 
L 59.234515 -68.464463 
L 58.8402 -68.464463 
L 58.445886 -68.464463 
L 58.051572 -68.464463 
L 57.657257 -68.464463 
L 57.262943 -68.464463 
L 56.868629 -68.464463 
L 56.474314 -68.464463 
L 56.08 -68.464463 
z
" style="stroke: #1f77b4; stroke-width: 1.5"/>
    </defs>
    <g clip-path="url(#pc278d5e601)">
     <use xlink:href="#m7d1f5f418a" x="0" y="345.6" style="fill: #1f77b4; stroke: #1f77b4; stroke-width: 1.5"/>
    </g>
   </g>
   <g id="line2d_6">
    <path d="M 56.08 277.135537 
L 450 277.135537 
L 450 277.135537 
" clip-path="url(#pc278d5e601)" style="fill: none; stroke: #1f77b4; stroke-width: 1.5; stroke-linecap: square"/>
   </g>
   <g id="line2d_7">
    <path d="M 56.08 277.135537 
L 86.836517 277.024945 
L 90.385345 276.786998 
L 92.751231 276.439959 
L 94.722803 275.952461 
L 96.30006 275.377574 
L 97.877317 274.588642 
L 99.454575 273.536646 
L 101.031832 272.173588 
L 102.609089 270.457475 
L 104.186346 268.35797 
L 105.763604 265.862035 
L 107.340861 262.978651 
L 109.312432 258.883678 
L 111.678318 253.417504 
L 118.775976 236.594678 
L 120.747548 232.676113 
L 122.324805 229.95717 
L 123.902062 227.635704 
L 125.479319 225.710596 
L 127.056577 224.158021 
L 128.633834 222.934906 
L 130.211091 221.982689 
L 132.182663 221.065099 
L 138.097377 218.566296 
L 139.674635 217.54529 
L 141.251892 216.212578 
L 142.829149 214.496638 
L 144.406406 212.340626 
L 145.983664 209.707252 
L 147.560921 206.583387 
L 149.138178 202.983687 
L 151.10975 197.884973 
L 153.475636 191.090674 
L 162.150551 165.373357 
L 165.305065 157.193928 
L 172.008408 140.175789 
L 174.768609 132.391695 
L 178.711752 120.470124 
L 183.443524 106.272912 
L 186.203724 98.766132 
L 188.56961 93.005754 
L 190.935495 87.90402 
L 193.301381 83.415904 
L 195.667267 79.428374 
L 199.216096 73.985467 
L 202.764925 68.476549 
L 205.130811 64.373356 
L 207.496697 59.747107 
L 209.862583 54.591035 
L 213.805726 45.291831 
L 216.96024 38.072884 
L 218.931812 34.080079 
L 220.509069 31.313879 
L 222.086326 28.986451 
L 223.663584 27.117562 
L 224.846527 26.010862 
L 226.029469 25.141022 
L 227.212412 24.486371 
L 228.78967 23.902901 
L 230.366927 23.589385 
L 231.944184 23.483156 
L 233.915756 23.56544 
L 236.281642 23.904244 
L 238.647528 24.494829 
L 240.619099 25.233065 
L 242.196356 26.041931 
L 243.773614 27.100047 
L 245.350871 28.461698 
L 246.928128 30.179368 
L 248.505385 32.299678 
L 250.082643 34.860365 
L 251.6599 37.888631 
L 253.237157 41.400927 
L 254.814414 45.403835 
L 256.785986 51.093521 
L 258.757558 57.524304 
L 261.123443 66.154275 
L 263.489329 75.643072 
L 267.038158 90.928363 
L 271.375616 109.600603 
L 273.741502 118.890092 
L 275.713073 125.846736 
L 277.684645 132.030807 
L 279.656216 137.511343 
L 282.022102 143.407534 
L 288.725445 159.566147 
L 291.091331 166.05673 
L 293.851532 174.341247 
L 297.40036 185.808643 
L 304.498018 208.954752 
L 307.258218 217.143452 
L 309.624104 223.509826 
L 311.98999 229.179724 
L 313.961562 233.35744 
L 315.933133 237.068085 
L 318.299019 240.995228 
L 320.664905 244.491082 
L 323.819419 248.749159 
L 329.33982 255.762893 
L 333.677277 260.965653 
L 336.437477 263.977669 
L 338.803363 266.285979 
L 341.169249 268.297994 
L 343.535135 269.995188 
L 345.901021 271.380453 
L 348.266907 272.474961 
L 350.632793 273.314133 
L 353.392993 274.031027 
L 356.547508 274.601929 
L 361.279279 275.193651 
L 373.503023 276.419794 
L 378.629109 276.729856 
L 383.755195 276.820949 
L 403.076597 276.912517 
L 415.30034 277.11242 
L 438.564885 277.135535 
L 450 277.135537 
L 450 277.135537 
" clip-path="url(#pc278d5e601)" style="fill: none; stroke: #000000; stroke-width: 1.5; stroke-linecap: square"/>
   </g>
   <g id="matplotlib.axis_2">
    <g id="ytick_1">
     <g id="line2d_8"/>
     <g id="text_7">
      <!-- y_label -->
      <g transform="translate(10.975312 280.934756) scale(0.1 -0.1)">
       <defs>
        <path id="DejaVuSans-79" d="M 2059 -325 
Q 1816 -950 1584 -1140 
Q 1353 -1331 966 -1331 
L 506 -1331 
L 506 -850 
L 844 -850 
Q 1081 -850 1212 -737 
Q 1344 -625 1503 -206 
L 1606 56 
L 191 3500 
L 800 3500 
L 1894 763 
L 2988 3500 
L 3597 3500 
L 2059 -325 
z
" transform="scale(0.015625)"/>
        <path id="DejaVuSans-5f" d="M 3263 -1063 
L 3263 -1509 
L -63 -1509 
L -63 -1063 
L 3263 -1063 
z
" transform="scale(0.015625)"/>
        <path id="DejaVuSans-6c" d="M 603 4863 
L 1178 4863 
L 1178 0 
L 603 0 
L 603 4863 
z
" transform="scale(0.015625)"/>
        <path id="DejaVuSans-61" d="M 2194 1759 
Q 1497 1759 1228 1600 
Q 959 1441 959 1056 
Q 959 750 1161 570 
Q 1363 391 1709 391 
Q 2188 391 2477 730 
Q 2766 1069 2766 1631 
L 2766 1759 
L 2194 1759 
z
M 3341 1997 
L 3341 0 
L 2766 0 
L 2766 531 
Q 2569 213 2275 61 
Q 1981 -91 1556 -91 
Q 1019 -91 701 211 
Q 384 513 384 1019 
Q 384 1609 779 1909 
Q 1175 2209 1959 2209 
L 2766 2209 
L 2766 2266 
Q 2766 2663 2505 2880 
Q 2244 3097 1772 3097 
Q 1472 3097 1187 3025 
Q 903 2953 641 2809 
L 641 3341 
Q 956 3463 1253 3523 
Q 1550 3584 1831 3584 
Q 2591 3584 2966 3190 
Q 3341 2797 3341 1997 
z
" transform="scale(0.015625)"/>
        <path id="DejaVuSans-62" d="M 3116 1747 
Q 3116 2381 2855 2742 
Q 2594 3103 2138 3103 
Q 1681 3103 1420 2742 
Q 1159 2381 1159 1747 
Q 1159 1113 1420 752 
Q 1681 391 2138 391 
Q 2594 391 2855 752 
Q 3116 1113 3116 1747 
z
M 1159 2969 
Q 1341 3281 1617 3432 
Q 1894 3584 2278 3584 
Q 2916 3584 3314 3078 
Q 3713 2572 3713 1747 
Q 3713 922 3314 415 
Q 2916 -91 2278 -91 
Q 1894 -91 1617 61 
Q 1341 213 1159 525 
L 1159 0 
L 581 0 
L 581 4863 
L 1159 4863 
L 1159 2969 
z
" transform="scale(0.015625)"/>
       </defs>
       <use xlink:href="#DejaVuSans-79"/>
       <use xlink:href="#DejaVuSans-5f" x="59.179688"/>
       <use xlink:href="#DejaVuSans-6c" x="109.179688"/>
       <use xlink:href="#DejaVuSans-61" x="136.962891"/>
       <use xlink:href="#DejaVuSans-62" x="198.242188"/>
       <use xlink:href="#DejaVuSans-65" x="261.71875"/>
       <use xlink:href="#DejaVuSans-6c" x="323.242188"/>
      </g>
     </g>
    </g>
   </g>
  </g>
 </g>
 <defs>
  <clipPath id="pc278d5e601">
   <rect x="56.08" y="10.8" width="393.92" height="306.92"/>
  </clipPath>
 </defs>
</svg>
